<svg xmlns="http://www.w3.org/2000/svg" viewBox="0 0 138.46 138.46"><defs><style>.cls-1{fill:#020202;}.cls-2{fill:#fff;}</style></defs><title>資產 1</title><g id="圖層_2" data-name="圖層 2"><g id="圖層_1-2" data-name="圖層 1"><circle class="cls-1" cx="69.23" cy="69.23" r="69.23"/><g id="圖層_2-2" data-name="圖層 2"><g id="圖層_1-2-2" data-name="圖層 1-2"><path class="cls-2" d="M69.23,8.89a59.88,59.88,0,1,0,.92,0Zm52,60.34a51.68,51.68,0,0,1-3.61,19.1L99.46,69.67l18.25-19.13A51.69,51.69,0,0,1,121.21,69.23ZM69.62,53.66l27.9-28a52.26,52.26,0,0,1,5.38,4l-33,33L36.64,28.73a51.84,51.84,0,0,1,4.65-3.34ZM89,21.17,69.23,40.1,49.46,21.16a51.9,51.9,0,0,1,39.53,0ZM29.63,35.55l72.36,74c-1.41,1.15-4,3.05-5.53,4L25.77,40.86a41,41,0,0,1,3.89-5.31Zm9.08,75.55a54.78,54.78,0,0,1-7.87-8.23l.63-44.53,57.37,58.23a74.91,74.91,0,0,1-7.2,2.29L38.58,76.32Zm-16-64.9.14,46.42C15.05,77.19,15.33,62.35,22.72,46.2Zm24.65,70,.34-18.39L72.3,120.64h-.9c-7,0-17.63-1.67-24-4.39Zm61.83-13.81L77.1,69.23l32.42-32.79a52.24,52.24,0,0,1,4,5.65L85.88,69.23l27.33,27.65a52.27,52.27,0,0,1-4,5.55Z"/></g></g></g></g></svg>