<svg width="228" height="44" viewBox="0 0 228 44" fill="none" xmlns="http://www.w3.org/2000/svg">
<g clip-path="url(#clip0)">
<path d="M60.579 6.51026C56.5906 3.39989 47.3723 1.0671 37.0579 0.381764C35.2222 0.236788 33.3468 0.144531 31.4583 0.144531C29.715 0.144531 28.0246 0.236788 26.3209 0.329045C15.8216 0.961665 6.37882 3.34717 2.33758 6.51026C0.739574 7.73596 0 9.47567 0 11.3076C0 12.8101 0.27734 14.2335 1.65083 15.4724C5.36191 18.8595 16.2046 22.1017 26.3209 23.1561C28.0642 23.3406 29.8075 23.4328 31.4583 23.4328C33.2544 23.4328 35.1694 23.301 37.0579 23.1165C47.0554 22.1017 57.6075 18.8068 61.2261 15.4724C62.5996 14.2335 62.9166 12.8101 62.9166 11.3076C62.9298 9.47567 62.1902 7.73596 60.579 6.51026ZM51.4664 15.5251C49.1288 18.2269 43.8594 20.5597 37.0579 21.4295C35.3146 21.6536 33.4393 21.7986 31.4583 21.7986C29.6754 21.7986 27.9321 21.6668 26.3209 21.4823C19.3082 20.6519 13.8538 18.3192 11.4238 15.5251C10.4993 14.4312 10.0899 12.8233 10.0899 11.6767C10.0899 10.4378 10.5918 8.47402 12.5199 7.01109C15.082 5.04733 20.0873 3.04404 26.3209 2.16101C27.9321 1.93695 29.6754 1.8447 31.4583 1.79198C33.3865 1.8447 35.2618 1.98967 37.0579 2.25326C43.067 3.12311 47.8874 5.08687 50.4099 7.01109C52.3248 8.47402 52.8267 10.4378 52.8267 11.6767C52.8267 12.8233 52.4173 14.418 51.4664 15.5251Z" fill="#000"/>
<path fill-rule="evenodd" clip-rule="evenodd" d="M36.1864 8.5C36.5034 8.46046 36.7807 8.40774 37.058 8.26276C37.4675 8.13097 37.8769 7.89374 38.3391 7.63014C38.6561 7.35337 38.9334 7.0766 39.2107 6.72075C39.3428 6.07496 39.3428 5.62685 39.2107 5.07331C38.8938 4.79654 38.6561 4.57248 38.2466 4.38797C37.8372 4.29571 37.4675 4.25617 37.058 4.38797C36.8203 4.48023 36.5958 4.66474 36.3713 4.94151C35.4072 6.08814 34.8129 6.99753 34.8129 8.60543C35.2619 8.63179 35.777 8.57907 36.1864 8.5ZM26.321 7.8542C26.6908 8.03871 27.1002 8.17051 27.3776 8.31548C27.6549 8.40774 28.2492 8.55271 28.3813 8.31548C28.6058 7.8542 28.4737 7.26112 28.3813 6.76029C28.2492 6.07496 27.8794 5.48187 27.47 4.88879C27.1927 4.51977 26.7833 4.1112 26.321 3.92669C26.2814 3.92669 26.2286 3.88715 26.189 3.88715C25.7795 3.75535 25.2249 3.75535 24.9079 4.01894C24.4061 4.48023 23.9042 5.25782 24.1815 6.03542C24.4457 6.89209 25.4494 7.48517 26.321 7.8542ZM37.058 16.645H36.9656C36.6883 16.5132 36.5562 16.3287 36.5034 15.9201V12.8361H39.3428V9.54118H37.058L33.4394 9.50164L33.4922 3.68945H29.7812V9.50164L26.3342 9.54118H23.6797V12.8361H26.5191C26.4663 13.4819 26.4135 14.2199 26.4135 14.813C26.3606 14.9975 26.3606 15.182 26.321 15.3666C26.189 15.9201 26.0041 16.4605 25.7267 17.014C25.2249 17.7916 24.7098 18.4769 24.208 19.2545C24.1683 19.6631 24.5777 19.6631 24.7626 19.6236C25.3966 19.3072 25.8588 19.0305 26.321 18.7142C26.7833 18.3979 27.2455 18.0684 27.787 17.6598C28.5265 17.1063 29.2529 16.1441 29.6623 15.4588C30.0717 14.813 30.4019 14.4044 30.7188 13.4951L30.8509 12.8888L32.3169 12.8493L32.6866 13.0733L32.647 18.1606C32.7791 18.8855 33.3338 19.3995 33.7036 19.4918L35.9487 19.584L37.058 19.5445L37.7052 19.4918C38.8938 18.7537 39.2239 18.0684 39.4485 16.6054L37.058 16.645Z" fill="#000"/>
<path d="M54.0549 29.7853C54.0549 29.6535 54.2002 29.469 54.3323 29.469H59.1923C59.3244 29.469 59.4697 29.6535 59.4697 29.7853V31.38H60.9752V29.5349C60.9752 28.955 60.6186 28.2696 59.681 28.2696H57.6339C57.449 27.8874 57.2377 27.3998 57.1189 26.9912H55.3096C55.4284 27.3602 55.6397 27.8874 55.8114 28.2696H53.8436C52.906 28.2696 52.5494 28.955 52.5494 29.5349V31.38H54.0549V29.7853ZM52.7739 33.9632H54.8209C55.7058 33.291 56.3661 31.8677 56.4057 30.352H54.8077C54.636 32.6057 53.1701 33.6601 52.7739 33.9632ZM57.1321 30.352V32.5266C57.1321 33.5019 57.7924 33.9237 58.6377 33.9237H60.5922L60.962 32.7243H59.0999C58.8754 32.7243 58.7565 32.5925 58.7565 32.408V30.3388H57.1321V30.352ZM52.3117 32.4871C52.0079 32.6321 51.5853 32.8298 51.2419 32.9747V30.721H52.1003V29.469H51.2419V26.9912H49.5515V29.469H48.2044L48.1912 30.721H49.5515V33.6864C49.1024 33.8578 48.5213 34.0555 48.0459 34.1873V35.5843C48.4685 35.4393 49.0628 35.2416 49.5515 35.0571V38.2334C49.5515 38.4443 49.3798 38.5629 49.1949 38.5629H48.2044L48.6006 39.7622H49.9212C50.7797 39.7622 51.2551 39.0637 51.2551 38.497V34.2927C51.5853 34.1609 51.9815 34.0027 52.3249 33.8314V32.4871H52.3117ZM57.5019 38.5629V35.8347H60.6451V34.6222H52.7607V35.8347H55.6397V38.5629H52.1928V39.7622H61.0281V38.5629H57.5019Z" fill="#000"/>
<path d="M42.7763 37.9967C43.1593 37.0873 43.5027 36.1779 43.7536 35.2026H42.0235C41.7462 36.1779 41.416 37.1137 40.8877 37.9967H42.7763ZM36.3182 35.2026H34.5353C34.8391 36.1647 35.1825 37.0873 35.5919 37.9967H37.5068C37.0182 37.0873 36.622 36.1779 36.3182 35.2026ZM40.1746 34.6096H45.1007V33.3443H40.1746V31.6441H42.3537V30.5634C42.948 31.2751 43.2253 31.5782 43.463 31.8155H45.8138C44.6252 30.6557 43.4366 29.3377 42.565 28.0461C42.4197 27.8353 42.0103 27.1895 41.1783 27.1895H37.1106C36.2918 27.1895 35.8692 27.8353 35.7239 28.0461C34.8523 29.3377 33.6637 30.6557 32.4751 31.8155H34.8259C35.0636 31.5782 35.3542 31.2883 35.9352 30.5898V31.6573H38.1143V33.3575H33.1883V34.6227H38.1143V38.5107H32.7656V39.7759H45.5101V38.5107H40.1614V34.6096H40.1746ZM36.1069 30.3921C36.4503 29.9703 36.8993 29.43 37.4804 28.7051C37.6125 28.547 37.7181 28.4547 37.9691 28.4547H40.3463C40.6104 28.4547 40.7161 28.547 40.8349 28.7051C41.416 29.43 41.8518 29.9703 42.1952 30.3921H36.1069Z" fill="#000"/>
<path d="M1.90186 39.3273H3.47345C3.89606 37.9698 4.1734 36.5332 4.3715 35.123H2.90556C2.72067 36.2037 2.23202 38.4047 1.90186 39.3273ZM8.80895 33.3306H6.47136V32.3553H8.80895V31.1296H7.64676C7.80524 30.576 7.97693 29.9171 8.09579 29.3635H8.69009V28.1378H6.43174C6.28647 27.782 6.10158 27.268 6.02234 26.9385H4.30547C4.39792 27.3075 4.5564 27.7688 4.70167 28.1378H2.46974V29.3635H3.07725C3.19611 29.9171 3.34138 30.576 3.49986 31.1296H2.35088V32.3553H4.78091V33.3306H2.35088V34.5563H4.78091V39.749H6.47136V34.5563H8.80895V33.3306ZM6.22044 31.1428H4.92618C4.78091 30.6024 4.62243 29.8775 4.52998 29.3767H6.64305C6.5506 29.8775 6.37892 30.5892 6.22044 31.1428ZM11.1994 31.1691V29.3108C11.1994 29.1526 11.305 29.0208 11.4767 28.9945C12.6917 28.8363 13.6426 28.6386 14.818 28.3092V27.0966C13.4313 27.3998 11.8069 27.6765 10.3673 27.8874C10.1164 27.9138 9.91831 28.0324 9.75983 28.2037C9.58814 28.4146 9.48249 28.6782 9.48249 28.9549V34.8989C9.48249 36.6123 9.17873 38.5233 8.37313 39.7358H10.2089C11.0145 38.207 11.1861 35.9533 11.1861 34.0027V32.3816H12.4804V39.7358H14.1709V32.3816H14.9765V31.1559H11.1994V31.1691ZM8.28068 35.1362H6.86756C6.9468 36.0719 7.07887 37.4426 7.29018 38.3783H8.75612C8.5184 37.469 8.35992 36.0851 8.28068 35.1362Z" fill="#000"/>
<path d="M29.4111 27.6507H27.6018C27.1792 28.995 26.717 30.3129 25.8717 31.4859H27.8527C28.5791 30.2866 29.0546 28.9686 29.4111 27.6507ZM21.8965 31.4859C21.1306 30.2866 20.5627 28.9686 20.1136 27.6507H18.3043C18.7666 28.9423 19.242 30.2734 19.9552 31.4859H21.8965ZM27.3509 38.4315C27.0736 38.4315 26.8755 38.2339 26.8755 37.9571V33.5156H30.1903V32.224H24.8152V26.9258H22.8606V32.224H17.4063V33.5156H20.7476C20.9721 37.4694 18.4364 38.9719 17.1157 39.7231H19.9684C20.9457 39.0378 22.755 37.6276 22.6757 33.5156H24.9473V38.168C24.9473 39.3014 25.5944 39.7363 26.3076 39.7363H30.0583L30.6129 38.4315H27.3509Z" fill="#000"/>
<path d="M78.0911 0.144531H74.5913V39.7491H78.0911V0.144531Z" fill="#000"/>
<path d="M111.332 22.7349H105.059C104.61 22.7349 104.24 22.6558 103.936 22.4976C103.633 22.3395 103.382 22.1418 103.17 21.8782C102.801 21.3774 102.629 20.7447 102.629 19.9935V10.5569H98.2707C98.2311 11.8354 98.1915 12.982 98.1519 14.0232C98.1123 15.0643 97.9802 16.0396 97.7557 16.9754C97.518 17.977 97.1218 18.9391 96.5935 19.8749C96.052 20.8106 95.2596 21.7728 94.2031 22.7744H89.5808C90.8882 21.7069 91.9315 20.6788 92.6843 19.7167C93.4371 18.7414 93.9786 17.7134 94.3352 16.6195C94.6257 15.7365 94.8106 14.8139 94.8898 13.8386C94.9691 12.8634 94.9823 11.7695 94.9294 10.5701H89.4751V8.14507H111.992V10.5569H105.997V19.7958C105.997 19.954 106.063 20.0858 106.208 20.1912C106.34 20.3098 106.472 20.3625 106.565 20.3625H111.742L111.332 22.7349ZM90.3335 2.71509V0.316406H111.174V2.72827H90.3335V2.71509Z" fill="#000"/>
<path d="M136.927 6.47117V4.46788C136.927 4.33608 136.861 4.20428 136.729 4.08567C136.596 3.96705 136.464 3.90115 136.332 3.90115H121.118C121.026 3.90115 120.933 3.95387 120.828 4.04613C120.722 4.13839 120.669 4.23064 120.669 4.3229V6.44481H117.447V3.43987C117.447 3.14992 117.5 2.88633 117.618 2.67545C117.737 2.46458 117.883 2.28007 118.067 2.12191C118.279 1.95058 118.517 1.81878 118.794 1.7397C119.071 1.64745 119.349 1.60791 119.626 1.60791H126.876C126.784 1.38386 126.691 1.10708 126.586 0.790774C126.48 0.474465 126.388 0.210873 126.295 0H129.782C130.02 0.500824 130.297 1.02801 130.587 1.60791H137.6C137.944 1.60791 138.26 1.66063 138.551 1.75288C138.842 1.84514 139.079 1.99012 139.291 2.17463C139.674 2.5173 139.858 3.00494 139.858 3.65074V6.47117H136.927ZM121.911 7.06425V5.04778H135.487V7.06425H121.911Z" fill="#000"/>
<path d="M195.102 16.3822C193.24 15.1038 190.902 13.2982 188.802 10.6228H193.795V8.59311H182.107C182.397 8.06592 182.661 7.53874 182.912 6.97202H193.081V4.92918H188.684C189.436 4.09887 190.665 1.87152 191.14 0.659003H188.05C187.508 1.81881 186.095 4.05933 185.263 4.92918H183.731C184.259 3.42671 184.682 1.81881 184.973 0.0791016H181.895C181.552 1.85834 181.063 3.46625 180.482 4.92918H180.165C179.267 3.84846 178.026 1.89788 177.458 0.659003H174.262C174.751 1.89788 175.992 3.8221 176.758 4.92918H172.532V6.97202H179.545C179.254 7.53874 178.95 8.0791 178.62 8.59311H171.832V10.6359H177.194C175.107 13.3114 172.756 15.117 170.907 16.3954H175.094C175.701 15.9868 176.296 15.5256 176.877 15.0379H179.465C178.62 18.8732 174.896 21.6013 172.426 22.6821H177.101C178.726 21.8781 181.644 19.1368 182.199 15.0379H186.055C186.32 15.0379 186.544 15.341 186.544 15.6046V19.9671C186.544 20.2966 186.161 20.6392 185.831 20.6392H182.49L183.282 22.6952H186.518C187.389 22.6952 188.063 22.4448 188.525 21.9704C188.961 21.5354 189.225 20.916 189.225 20.2307C189.225 20.2307 189.225 17.977 189.225 16.1582C189.225 15.7496 189.08 15.2751 188.829 14.8139C189.489 15.3938 190.176 15.9341 190.876 16.4086H195.102V16.3822ZM186.095 12.9951H179.003C179.663 12.2702 180.284 11.4794 180.865 10.6228H185.184C185.844 11.5849 186.557 12.4679 187.31 13.2719C186.94 13.1005 186.531 12.9951 186.095 12.9951ZM152.59 2.47778H150.239C150.014 1.87152 149.697 0.935774 149.499 0.13182H147.003C147.228 0.948953 147.505 1.84516 147.716 2.47778H145.102V4.52062H152.59V2.47778ZM152.194 6.28668H145.59V8.32951H152.194V6.28668ZM145.603 12.1252H152.207V10.0824H145.603V12.1252ZM156.076 16.8962H163.38C163.947 16.8962 164.674 16.6722 165.03 16.29C165.334 15.9341 165.519 15.4728 165.519 14.8929V12.4415C165.519 11.9803 165.281 11.5321 164.951 11.1763C164.621 10.8468 164.159 10.6228 163.697 10.6228H156.195C155.759 10.6228 155.324 10.8205 154.993 11.1104C154.61 11.4399 154.373 11.8748 154.373 12.3097V15.2093C154.373 15.6442 154.584 16.0527 154.888 16.3559C155.231 16.659 155.693 16.8962 156.076 16.8962ZM156.776 13.0214C156.776 12.7974 157.04 12.5602 157.291 12.5602H162.574C162.878 12.5602 163.142 12.8896 163.142 13.1928V14.3526C163.142 14.6821 162.891 14.9325 162.574 14.9325H157.265C156.961 14.9325 156.776 14.7084 156.776 14.4185V13.0214ZM150.582 13.8122H147.267C146.832 13.8122 146.396 14.0231 146.052 14.2999C145.669 14.6293 145.432 15.0643 145.432 15.4992V21.0083C145.432 21.4432 145.643 21.8518 145.947 22.1681C146.277 22.4976 146.739 22.7348 147.135 22.7348H150.265C150.833 22.7348 151.56 22.4976 151.916 22.1153C152.22 21.7595 152.405 21.2982 152.405 20.7051V15.6574C152.405 15.1961 152.18 14.7348 151.837 14.3789C151.507 14.0363 151.045 13.8122 150.582 13.8122ZM150.107 20.1648C150.107 20.4943 149.922 20.7579 149.618 20.7579H148.258C147.954 20.7579 147.769 20.5338 147.769 20.2438V16.2373C147.769 16 148.02 15.776 148.284 15.776H149.618C149.922 15.776 150.107 16.1055 150.107 16.4218V20.1648ZM168.108 4.94236H165.4C165.215 5.31139 164.912 5.74632 164.608 6.11535C164.317 5.58816 164.027 5.02144 163.749 4.41518C164.713 3.50579 166.206 1.77927 166.932 0.843517H164.053C163.868 1.33116 163.393 2.06922 162.983 2.50414C162.746 1.83198 162.534 1.12029 162.363 0.355873H159.906C160.368 3.05768 161.293 5.32457 162.323 7.15653H157.767C158.559 5.90447 159.259 4.4679 159.616 2.96543C159.867 1.93742 159.391 0.540387 157.688 0.540387H153.461V2.43825H156.829C157.067 2.43825 157.212 2.6623 157.146 2.87317C156.961 3.63759 156.657 4.41518 156.274 5.16642C155.997 4.75785 155.68 4.23067 155.522 3.83528H153.197C153.659 4.83693 154.492 6.2076 155.139 7.09063C154.201 8.47449 153.171 9.59475 152.563 10.1615H155.495C155.759 9.87152 156.05 9.54204 156.34 9.17301H163.644C163.908 9.52886 164.159 9.85835 164.41 10.1615H167.5C167.091 9.67383 166.378 8.84352 165.585 7.67054C166.444 6.8534 167.54 5.70678 168.108 4.94236ZM165.149 17.8056H162.323C162.033 18.8073 161.689 19.7694 161.28 20.7051H158.612C158.203 19.7694 157.846 18.7941 157.555 17.8056H154.729C155.02 18.7941 155.416 19.7694 155.852 20.7051H153.184V22.7216H167.355V20.7051H164.04C164.463 19.7826 164.859 18.8073 165.149 17.8056Z" fill="#000"/>
<path d="M137.534 8.5931C137.138 8.25044 136.623 8.0791 135.976 8.0791H121.237C120.616 8.0791 120.128 8.22408 119.784 8.48767C119.388 8.80398 119.19 9.25208 119.19 9.85834V11.4926C119.19 11.9275 119.348 12.3097 119.652 12.6524C120.009 13.0478 120.445 13.2455 120.946 13.2455H136.161C136.742 13.2455 137.217 13.0873 137.587 12.7842C137.943 12.5074 138.128 12.0989 138.128 11.5453V9.99014C138.142 9.39706 137.93 8.93577 137.534 8.5931ZM135.21 11.0313C135.21 11.1236 135.183 11.1895 135.117 11.2554C135.051 11.3213 134.985 11.3476 134.893 11.3476H122.294C122.201 11.3476 122.135 11.3213 122.069 11.2554C122.003 11.1895 121.977 11.1236 121.977 11.0313V10.2933C121.977 10.201 122.003 10.1351 122.056 10.0692C122.109 10.0033 122.175 9.97696 122.267 9.97696H134.866C134.959 9.97696 135.025 10.0165 135.104 10.0824C135.17 10.1483 135.21 10.2274 135.21 10.3196V11.0313Z" fill="#000"/>
<path d="M139.106 15.4855C138.987 15.2351 138.828 15.011 138.643 14.8265C138.234 14.4706 137.679 14.2861 137.006 14.2861H120.392C119.626 14.2861 119.045 14.497 118.635 14.9056C118.239 15.2614 118.041 15.7886 118.041 16.4871V20.5991C118.041 20.8627 118.094 21.1132 118.199 21.3504C118.305 21.5876 118.437 21.8117 118.609 21.9962C118.794 22.2202 119.032 22.3916 119.296 22.5234C119.56 22.6552 119.85 22.7211 120.141 22.7211H137.059C137.772 22.7211 138.313 22.5365 138.696 22.1807C139.092 21.8248 139.291 21.324 139.291 20.7046V16.3817C139.291 16.0258 139.225 15.7359 139.106 15.4855ZM127.299 20.8496H120.986C120.894 20.8496 120.814 20.7968 120.722 20.7046C120.63 20.6123 120.59 20.5201 120.59 20.4278V19.3207H127.299V20.8496ZM127.299 17.6337H120.59V16.5267C120.59 16.4344 120.63 16.3553 120.709 16.2631C120.788 16.1708 120.88 16.1313 120.986 16.1313H127.299V17.6337ZM136.728 20.4542C136.728 20.5464 136.689 20.6255 136.61 20.7178C136.53 20.81 136.451 20.8496 136.359 20.8496H130.323V19.3339H136.728V20.4542ZM136.728 17.6337H130.323V16.1445H136.279C136.372 16.1445 136.464 16.184 136.57 16.2762C136.676 16.3685 136.728 16.4608 136.728 16.5662V17.6337Z" fill="#000"/>
<path d="M219.825 38.9857C220.551 38.9857 221.251 38.7617 221.832 38.3004L221.898 38.3663L221.542 39.2889C221.291 39.4866 220.987 39.6447 220.617 39.7502C220.261 39.8688 219.799 39.9215 219.217 39.9215C218.716 39.9215 218.24 39.8556 217.791 39.7238C217.342 39.592 216.959 39.3679 216.616 39.0516C216.272 38.7353 216.008 38.3399 215.797 37.8655C215.599 37.3778 215.493 36.8111 215.493 36.1389C215.493 35.48 215.586 34.9133 215.757 34.4256C215.942 33.938 216.18 33.5426 216.497 33.2131C216.814 32.8836 217.17 32.6464 217.606 32.4882C218.042 32.3301 218.517 32.251 219.019 32.251C220.023 32.251 220.789 32.5409 221.317 33.134C221.859 33.7139 222.123 34.5442 222.123 35.6249V35.9413C222.123 36.0335 222.123 36.0994 222.11 36.1258H217.738C217.738 36.5343 217.778 36.9034 217.857 37.2592C217.936 37.6151 218.068 37.9182 218.227 38.1818C218.399 38.4322 218.61 38.6431 218.874 38.788C219.178 38.9198 219.482 38.9857 219.825 38.9857ZM219.838 33.6217C219.666 33.1735 219.389 32.9495 218.993 32.9495C218.768 32.9495 218.584 33.0286 218.425 33.1735C218.267 33.3185 218.148 33.5162 218.055 33.7534C217.963 33.9907 217.897 34.2543 217.844 34.5574C217.804 34.8605 217.765 35.1505 217.765 35.4404H220.102C220.102 34.676 220.01 34.0698 219.838 33.6217Z" fill="#000"/>
<path d="M178.752 38.9857C179.479 38.9857 180.178 38.7617 180.76 38.3004L180.826 38.3663L180.469 39.2889C180.218 39.4866 179.914 39.6447 179.545 39.7502C179.188 39.8688 178.726 39.9215 178.145 39.9215C177.643 39.9215 177.167 39.8556 176.718 39.7238C176.269 39.592 175.886 39.3679 175.543 39.0516C175.2 38.7353 174.935 38.3399 174.724 37.8655C174.526 37.3778 174.42 36.8111 174.42 36.1389C174.42 35.48 174.513 34.9133 174.685 34.4256C174.869 33.938 175.107 33.5426 175.424 33.2131C175.741 32.8836 176.098 32.6464 176.533 32.4882C176.969 32.3301 177.445 32.251 177.947 32.251C178.95 32.251 179.716 32.5409 180.245 33.134C180.786 33.7139 181.05 34.5442 181.05 35.6249V35.9413C181.05 36.0335 181.05 36.0994 181.037 36.1258H176.666C176.666 36.5343 176.705 36.9034 176.784 37.2592C176.864 37.6151 176.996 37.9182 177.154 38.1818C177.326 38.4322 177.537 38.6431 177.801 38.788C178.105 38.9198 178.409 38.9857 178.752 38.9857ZM178.765 33.6217C178.594 33.1735 178.316 32.9495 177.92 32.9495C177.696 32.9495 177.511 33.0286 177.352 33.1735C177.194 33.3185 177.075 33.5162 176.982 33.7534C176.89 33.9907 176.824 34.2543 176.771 34.5574C176.732 34.8605 176.692 35.1505 176.692 35.4404H179.03C179.016 34.676 178.937 34.0698 178.765 33.6217Z" fill="#000"/>
<path d="M126.084 38.9857C126.811 38.9857 127.511 38.7617 128.092 38.3004L128.158 38.3663L127.801 39.2889C127.55 39.4866 127.246 39.6447 126.877 39.7502C126.52 39.8688 126.058 39.9215 125.477 39.9215C124.975 39.9215 124.499 39.8556 124.05 39.7238C123.601 39.592 123.218 39.3679 122.875 39.0516C122.532 38.7353 122.267 38.3399 122.056 37.8655C121.858 37.3778 121.752 36.8111 121.752 36.1389C121.752 35.48 121.845 34.9133 122.017 34.4256C122.201 33.938 122.439 33.5426 122.756 33.2131C123.073 32.8836 123.43 32.6464 123.866 32.4882C124.301 32.3301 124.777 32.251 125.279 32.251C126.282 32.251 127.048 32.5409 127.577 33.134C128.118 33.7139 128.382 34.5442 128.382 35.6249V35.9413C128.382 36.0335 128.382 36.0994 128.369 36.1258H123.998C123.998 36.5343 124.037 36.9034 124.116 37.2592C124.196 37.6151 124.328 37.9182 124.486 38.1818C124.658 38.4322 124.869 38.6431 125.133 38.788C125.424 38.9198 125.728 38.9857 126.084 38.9857ZM126.084 33.6217C125.913 33.1735 125.635 32.9495 125.239 32.9495C125.014 32.9495 124.83 33.0286 124.671 33.1735C124.513 33.3185 124.394 33.5162 124.301 33.7534C124.209 33.9907 124.143 34.2543 124.09 34.5574C124.05 34.8605 124.011 35.1505 124.011 35.4404H126.348C126.348 34.676 126.256 34.0698 126.084 33.6217Z" fill="#000"/>
<path d="M169.653 30.0632C169.125 30.0632 168.715 30.195 168.411 30.4718C168.094 30.7353 167.962 31.0648 167.976 31.4207C168.002 31.7897 168.147 32.0797 168.425 32.3433C168.702 32.5805 169.032 32.7914 169.415 32.9759C169.811 33.1604 170.234 33.3713 170.683 33.5426C171.132 33.7139 171.555 33.9248 171.964 34.1752C172.373 34.452 172.704 34.7551 172.981 35.111C173.258 35.4932 173.43 35.9676 173.47 36.5344C173.509 37.0352 173.43 37.4833 173.245 37.9182C173.06 38.3268 172.783 38.6958 172.413 38.9989C172.03 39.2889 171.581 39.5788 171.04 39.737C170.511 39.9083 169.93 40.0138 169.217 39.9874C168.557 39.961 167.962 39.737 167.434 39.5393C166.919 39.3548 166.298 38.9199 166.008 38.7353L166.563 37.0879L166.721 37.1011C166.8 37.3251 166.893 37.6019 167.051 37.8128C167.21 38.0105 167.434 38.2609 167.672 38.419C167.91 38.5904 168.174 38.7485 168.504 38.854C168.821 38.9594 169.177 39.0121 169.574 39.0385C170.247 39.0912 170.736 38.8671 171.04 38.5508C171.343 38.2477 171.489 37.905 171.449 37.4569C171.423 37.0879 171.277 36.7848 171 36.5344C170.736 36.2708 170.419 36.0599 170.023 35.8886C169.64 35.704 169.217 35.5195 168.768 35.335C168.319 35.1637 167.896 34.9528 167.5 34.7024C167.104 34.452 166.774 34.1225 166.51 33.7666C166.232 33.4108 166.074 32.9232 166.034 32.3564C165.995 31.8161 166.074 31.368 166.259 30.9462C166.444 30.5508 166.695 30.2213 167.025 29.9314C167.368 29.6678 167.751 29.4701 168.2 29.3251C168.649 29.1802 169.125 29.1143 169.64 29.1143C170.326 29.1143 170.934 29.1802 171.462 29.312C171.99 29.4306 172.453 29.6151 172.836 29.8391L172.334 31.3548H172.189C171.713 30.4981 170.855 30.0632 169.653 30.0632Z" fill="#000"/>
<path d="M223.839 38.3395C223.932 38.4844 224.051 38.6162 224.196 38.7217C224.341 38.8403 224.513 38.9326 224.711 38.9984C224.909 39.0643 225.134 39.1039 225.398 39.1039C225.754 39.1039 226.018 39.0116 226.203 38.8403C226.401 38.6558 226.494 38.4713 226.494 38.2604C226.494 38.0232 226.401 37.8518 226.23 37.7069C226.058 37.5619 225.847 37.4301 225.583 37.3115C225.332 37.1928 225.041 37.0742 224.751 36.9556C224.447 36.837 224.169 36.692 223.905 36.5075C223.654 36.323 223.443 36.0858 223.271 35.809C223.1 35.519 223.021 35.1632 223.021 34.7283C223.021 34.3065 223.1 33.9507 223.245 33.6344C223.403 33.3312 223.602 33.0808 223.853 32.8963C224.103 32.6986 224.381 32.5536 224.698 32.4614C225.015 32.3691 225.332 32.3164 225.635 32.3164C226.058 32.3164 226.441 32.3823 226.758 32.5009C227.088 32.6195 227.418 32.804 227.762 33.0281C227.669 33.2258 227.59 33.4367 227.537 33.6739C227.471 33.898 227.432 34.1352 227.405 34.3592H226.983C226.956 34.2406 226.903 34.1088 226.837 33.9639C226.771 33.8189 226.666 33.6739 226.547 33.5421C226.428 33.4103 226.283 33.3049 226.111 33.2126C225.939 33.1335 225.728 33.0808 225.49 33.0808C225.2 33.0808 224.935 33.1599 224.737 33.3181C224.526 33.4762 224.434 33.6871 224.434 33.9507C224.434 34.1879 224.526 34.3856 224.698 34.5174C224.869 34.6624 225.094 34.7942 225.358 34.8996C225.622 35.005 225.9 35.1237 226.217 35.2291C226.533 35.3345 226.824 35.4795 227.088 35.6508C227.352 35.8354 227.564 36.0594 227.748 36.3362C227.92 36.6129 228.013 36.9688 228.013 37.4037C228.013 37.8518 227.933 38.2209 227.775 38.5372C227.616 38.8535 227.405 39.1039 227.128 39.3148C226.864 39.5256 226.547 39.6706 226.19 39.7629C225.847 39.8551 225.477 39.8947 225.107 39.8947C224.658 39.8947 224.236 39.8288 223.879 39.697C223.522 39.5652 223.232 39.4334 223.021 39.2752C223.139 38.8008 223.219 38.3131 223.245 37.8386H223.615C223.668 38.0495 223.747 38.2077 223.839 38.3395Z" fill="#000"/>
<path d="M111.425 38.3395C111.517 38.4844 111.636 38.6162 111.781 38.7217C111.927 38.8403 112.098 38.9326 112.296 38.9984C112.495 39.0643 112.719 39.1039 112.983 39.1039C113.34 39.1039 113.604 39.0116 113.789 38.8403C113.987 38.6558 114.079 38.4713 114.079 38.2604C114.079 38.0232 113.987 37.8518 113.815 37.7069C113.643 37.5619 113.432 37.4301 113.168 37.3115C112.917 37.1928 112.627 37.0742 112.336 36.9556C112.032 36.837 111.755 36.692 111.491 36.5075C111.24 36.323 111.029 36.0858 110.857 35.809C110.685 35.519 110.606 35.1632 110.606 34.7283C110.606 34.3065 110.685 33.9507 110.83 33.6344C110.989 33.3312 111.187 33.0808 111.438 32.8963C111.689 32.6986 111.966 32.5536 112.283 32.4614C112.6 32.3691 112.917 32.3164 113.221 32.3164C113.643 32.3164 114.026 32.3823 114.343 32.5009C114.674 32.6195 115.004 32.804 115.347 33.0281C115.255 33.2258 115.175 33.4367 115.123 33.6739C115.057 33.898 115.017 34.1352 114.991 34.3592H114.568C114.542 34.2406 114.489 34.1088 114.423 33.9639C114.357 33.8189 114.251 33.6739 114.132 33.5421C114.013 33.4103 113.868 33.3049 113.696 33.2126C113.525 33.1335 113.313 33.0808 113.076 33.0808C112.785 33.0808 112.521 33.1599 112.323 33.3181C112.112 33.4762 112.019 33.6871 112.019 33.9507C112.019 34.1879 112.112 34.3856 112.283 34.5174C112.455 34.6624 112.679 34.7942 112.944 34.8996C113.208 35.005 113.485 35.1237 113.802 35.2291C114.119 35.3345 114.409 35.4795 114.674 35.6508C114.938 35.8354 115.149 36.0594 115.334 36.3362C115.506 36.6129 115.598 36.9688 115.598 37.4037C115.598 37.8518 115.519 38.2209 115.36 38.5372C115.202 38.8535 114.991 39.1039 114.713 39.3148C114.449 39.5256 114.132 39.6706 113.776 39.7629C113.432 39.8551 113.062 39.8947 112.693 39.8947C112.244 39.8947 111.821 39.8288 111.464 39.697C111.108 39.5652 110.817 39.4334 110.606 39.2752C110.725 38.8008 110.804 38.3131 110.83 37.8386H111.2C111.253 38.0495 111.332 38.2077 111.425 38.3395Z" fill="#000"/>
<path d="M199.592 34.3856C199.857 33.7003 200.174 33.1863 200.543 32.8568C200.913 32.5405 201.349 32.3691 201.864 32.3691C201.917 32.3691 201.956 32.3691 201.996 32.3691C202.036 32.3691 202.062 32.3691 202.102 32.3691C202.075 32.5141 202.049 32.6855 202.036 32.8568C202.022 33.0281 202.022 33.2258 202.022 33.463V33.9507C202.022 34.0298 202.022 34.122 202.022 34.2011C202.022 34.2934 202.022 34.3724 202.036 34.4647L201.904 34.5833C201.798 34.5174 201.679 34.4779 201.56 34.4383C201.441 34.3988 201.296 34.3724 201.138 34.3724C200.689 34.3724 200.332 34.5174 200.068 34.8205C199.804 35.1105 199.672 35.4532 199.672 35.8617V36.4548C199.672 37.0611 199.685 37.641 199.698 38.1813C199.711 38.7217 199.751 39.2357 199.804 39.7365C199.672 39.7233 199.513 39.7233 199.315 39.7233C199.117 39.7233 198.906 39.7233 198.681 39.7233C198.457 39.7233 198.245 39.7233 198.047 39.7233C197.862 39.7233 197.691 39.7233 197.559 39.7365C197.598 39.2357 197.638 38.7085 197.651 38.1813C197.664 37.641 197.677 37.0611 197.677 36.4548V35.8485C197.677 35.2423 197.664 34.6624 197.651 34.1352C197.638 33.5948 197.611 33.0545 197.559 32.5141C197.73 32.5273 197.902 32.5537 198.074 32.5668C198.259 32.58 198.417 32.5932 198.589 32.5932C198.76 32.5932 198.919 32.5932 199.104 32.5668C199.275 32.5537 199.447 32.5405 199.619 32.5141L199.579 34.3461L199.592 34.3856Z" fill="#000"/>
<path d="M131.525 34.3856C131.789 33.7003 132.106 33.1863 132.476 32.8568C132.846 32.5405 133.282 32.3691 133.797 32.3691C133.849 32.3691 133.889 32.3691 133.929 32.3691C133.968 32.3691 133.995 32.3691 134.034 32.3691C134.008 32.5141 133.981 32.6855 133.968 32.8568C133.955 33.0281 133.955 33.2258 133.955 33.463V33.9507C133.955 34.0298 133.955 34.122 133.955 34.2011C133.955 34.2934 133.955 34.3724 133.968 34.4647L133.836 34.5833C133.731 34.5174 133.612 34.4779 133.493 34.4383C133.374 34.3988 133.229 34.3724 133.07 34.3724C132.621 34.3724 132.265 34.5174 132 34.8205C131.736 35.1105 131.604 35.4532 131.604 35.8617V36.4548C131.604 37.0611 131.617 37.641 131.631 38.1813C131.644 38.7217 131.67 39.2357 131.736 39.7365C131.604 39.7233 131.446 39.7233 131.248 39.7233C131.05 39.7233 130.838 39.7233 130.614 39.7233C130.389 39.7233 130.178 39.7233 129.98 39.7233C129.795 39.7233 129.623 39.7233 129.491 39.7365C129.531 39.2357 129.57 38.7085 129.584 38.1813C129.597 37.641 129.61 37.0611 129.61 36.4548V35.8485C129.61 35.2423 129.597 34.6624 129.584 34.1352C129.57 33.5948 129.544 33.0545 129.491 32.5141C129.663 32.5273 129.835 32.5537 130.006 32.5668C130.191 32.58 130.35 32.5932 130.521 32.5932C130.693 32.5932 130.851 32.5932 131.036 32.5668C131.208 32.5537 131.38 32.5405 131.551 32.5141L131.512 34.3461L131.525 34.3856Z" fill="#000"/>
<path d="M194.27 38.669C193.993 39.0908 193.662 39.4071 193.279 39.6311C192.896 39.842 192.474 39.9474 191.998 39.9474C191.232 39.9474 190.651 39.7366 190.255 39.3148C189.846 38.8931 189.648 38.2077 189.648 37.2325C189.648 36.7316 189.648 36.2835 189.661 35.8881C189.674 35.4928 189.687 35.1105 189.687 34.7152C189.687 34.3989 189.674 34.0562 189.661 33.674C189.648 33.3049 189.634 32.9227 189.621 32.5537C189.753 32.5669 189.912 32.5801 190.123 32.5932C190.321 32.6064 190.532 32.6064 190.744 32.6064C190.968 32.6064 191.179 32.6064 191.378 32.5932C191.576 32.5801 191.747 32.5669 191.879 32.5537C191.813 33.0941 191.761 33.7135 191.747 34.4252C191.721 35.1369 191.721 35.9409 191.721 36.8502C191.721 37.4829 191.84 37.9442 192.051 38.2473C192.262 38.5372 192.566 38.6822 192.962 38.6822C193.411 38.6822 193.742 38.4845 193.953 38.1023C194.164 37.7069 194.27 37.1666 194.27 36.4812V35.8881C194.27 35.2687 194.27 34.702 194.257 34.1748C194.243 33.6344 194.204 33.0941 194.164 32.5669C194.442 32.6064 194.811 32.6328 195.287 32.6328C195.524 32.6328 195.736 32.6328 195.921 32.6196C196.106 32.6064 196.277 32.5932 196.409 32.5801C196.356 33.1204 196.33 33.6476 196.317 34.188C196.304 34.7152 196.304 35.2951 196.304 35.9013V36.5076C196.304 37.1138 196.304 37.6937 196.317 38.2341C196.33 38.7745 196.356 39.2885 196.409 39.7893C196.224 39.7761 196.053 39.7629 195.881 39.7629C195.709 39.7629 195.538 39.7629 195.34 39.7629C195.155 39.7629 194.983 39.7629 194.811 39.7629C194.64 39.7629 194.455 39.7761 194.257 39.7893L194.323 38.7086H194.27V38.669Z" fill="#000"/>
<path d="M91.1127 36.3367C91.0335 37.457 90.9543 38.5904 90.875 39.7107C90.7562 39.6843 90.6373 39.6843 90.5185 39.6843C90.3996 39.6843 90.2807 39.6843 90.1751 39.6843C90.0562 39.6843 89.9374 39.6843 89.8185 39.6843C89.6996 39.6843 89.5808 39.6975 89.4619 39.7107C89.7921 37.9842 90.0694 36.2577 90.3203 34.5575C90.5713 32.8441 90.809 31.1176 91.0203 29.3516C91.126 29.3647 91.2316 29.3911 91.3241 29.4043C91.4165 29.4175 91.5222 29.4175 91.641 29.4175C91.7335 29.4175 91.8259 29.4175 91.9316 29.4043C92.0372 29.3911 92.1429 29.3779 92.2485 29.3516C92.5127 29.9578 92.8032 30.5641 93.107 31.1967C93.4107 31.8161 93.7013 32.4356 94.005 33.055C94.3088 33.6745 94.5993 34.2807 94.9031 34.8738C95.1936 35.4669 95.4842 36.0336 95.7615 36.5608C96.369 35.4405 96.9633 34.2544 97.5708 33.0287C98.1651 31.7898 98.7462 30.5641 99.2877 29.3516C99.5386 29.4043 99.7631 29.4175 99.9348 29.4175C100.106 29.4175 100.318 29.3911 100.569 29.3516C100.674 30.2082 100.78 31.144 100.899 32.1456C101.018 33.1341 101.123 34.1094 101.242 35.0583C101.348 36.0072 101.467 36.8903 101.572 37.7206C101.678 38.5509 101.784 39.2099 101.876 39.7107C101.678 39.6843 101.467 39.6843 101.269 39.6843C101.057 39.6843 100.859 39.6843 100.661 39.6843C100.463 39.6843 100.252 39.6843 100.04 39.6843C99.8292 39.6843 99.6178 39.6975 99.4065 39.7107C99.3537 38.6827 99.2745 37.5493 99.1556 36.3499C99.0368 35.1506 98.9179 33.9512 98.799 32.7651H98.7726C98.1915 33.9512 97.6369 35.1242 97.0822 36.2577C96.5275 37.4043 95.9728 38.5509 95.4313 39.7107C95.3785 39.6975 95.3389 39.6975 95.2861 39.6843C95.2464 39.6712 95.1936 39.6712 95.1408 39.6712C95.088 39.6712 95.0483 39.6712 94.9955 39.6843C94.9559 39.6843 94.9031 39.6975 94.8502 39.7107C94.3088 38.5904 93.7673 37.457 93.2258 36.3367C92.6843 35.2165 92.1297 34.0698 91.5486 32.91H91.5222C91.3109 34.0698 91.192 35.2165 91.1127 36.3367Z" fill="#000"/>
<path d="M120.709 32.936C120.709 33.0678 120.722 33.1996 120.762 33.3183L119.428 33.2787C119.414 33.5159 119.388 33.7795 119.375 34.0827C119.362 34.3858 119.348 34.6889 119.348 35.0052C119.348 35.3215 119.335 35.6115 119.335 35.9014C119.335 36.1914 119.335 36.4418 119.335 36.6395C119.335 37.1667 119.348 37.5884 119.375 37.9047C119.401 38.2342 119.441 38.4715 119.507 38.6428C119.573 38.8141 119.652 38.9327 119.771 38.9855C119.877 39.0514 120.022 39.0777 120.194 39.0777C120.392 39.0777 120.524 39.0645 120.616 39.0382C120.709 39.0118 120.801 38.9723 120.894 38.9327V39.5522C120.696 39.6444 120.445 39.7235 120.141 39.7894C119.837 39.8553 119.547 39.8949 119.256 39.8949C117.975 39.8949 117.341 39.1304 117.341 37.6016C117.341 37.3117 117.341 36.9822 117.354 36.6131C117.367 36.2441 117.381 35.8619 117.394 35.4797C117.407 35.0843 117.42 34.7153 117.433 34.3331C117.447 33.9509 117.447 33.6082 117.447 33.2787L116.39 33.2919C116.417 33.1733 116.43 33.0415 116.43 32.9097C116.43 32.7911 116.417 32.6593 116.39 32.5011L117.447 32.5407C117.447 32.2243 117.447 31.9344 117.433 31.6708C117.42 31.394 117.407 31.0777 117.394 30.6955C117.75 30.5505 118.094 30.4056 118.437 30.2474C118.781 30.0893 119.124 29.9311 119.454 29.7598L119.613 29.8652C119.599 30.0234 119.573 30.2211 119.56 30.4319C119.547 30.6428 119.533 30.88 119.52 31.1173C119.507 31.3545 119.494 31.5917 119.494 31.8421C119.494 32.0925 119.481 32.3166 119.481 32.5407L120.814 32.5143C120.722 32.6856 120.709 32.8174 120.709 32.936Z" fill="#000"/>
<path d="M211.24 32.936C211.24 33.0678 211.254 33.1996 211.293 33.3183L209.959 33.2787C209.946 33.5159 209.92 33.7795 209.907 34.0827C209.893 34.3858 209.88 34.6889 209.88 35.0052C209.88 35.3215 209.867 35.6115 209.867 35.9014C209.867 36.1914 209.867 36.4418 209.867 36.6395C209.867 37.1667 209.88 37.5884 209.907 37.9047C209.933 38.2342 209.973 38.4715 210.039 38.6428C210.105 38.8141 210.184 38.9327 210.303 38.9855C210.408 39.0514 210.554 39.0777 210.725 39.0777C210.923 39.0777 211.056 39.0645 211.148 39.0382C211.24 39.0118 211.333 38.9723 211.425 38.9327V39.5522C211.227 39.6444 210.976 39.7235 210.673 39.7894C210.369 39.8553 210.078 39.8949 209.788 39.8949C208.507 39.8949 207.873 39.1304 207.873 37.6016C207.873 37.3117 207.873 36.9822 207.886 36.6131C207.899 36.2441 207.912 35.8619 207.926 35.4797C207.939 35.0843 207.952 34.7153 207.965 34.3331C207.978 33.9509 207.978 33.6082 207.978 33.2787L206.922 33.2919C206.948 33.1733 206.962 33.0415 206.962 32.9097C206.962 32.7911 206.948 32.6593 206.922 32.5011L207.978 32.5407C207.978 32.2243 207.978 31.9344 207.965 31.6708C207.952 31.394 207.939 31.0777 207.926 30.6955C208.282 30.5505 208.626 30.4056 208.969 30.2474C209.312 30.0893 209.656 29.9311 209.986 29.7598L210.144 29.8652C210.131 30.0234 210.105 30.2211 210.091 30.4319C210.078 30.6428 210.065 30.88 210.052 31.1173C210.039 31.3545 210.025 31.5917 210.025 31.8421C210.025 32.0925 210.012 32.3166 210.012 32.5407L211.346 32.5143C211.254 32.6856 211.24 32.8174 211.24 32.936Z" fill="#000"/>
<path d="M143.147 28.415C142.804 28.415 142.513 28.5337 142.276 28.7709C142.038 29.0081 141.919 29.2849 141.919 29.6144C141.919 29.9439 142.038 30.2338 142.276 30.4711C142.513 30.7083 142.804 30.8137 143.147 30.8137C143.491 30.8137 143.781 30.6951 144.019 30.4711C144.257 30.2338 144.375 29.9439 144.375 29.6144C144.375 29.2849 144.257 28.9949 144.019 28.7709C143.781 28.5205 143.491 28.415 143.147 28.415Z" fill="#000"/>
<path d="M144.217 34.1089C144.23 33.5685 144.27 33.0282 144.322 32.4746H141.998C142.051 33.015 142.077 33.5685 142.104 34.1089C142.117 34.6492 142.13 35.2291 142.13 35.8486V36.4548C142.13 37.0743 142.117 37.6542 142.104 38.2077C142.09 38.7481 142.051 39.2753 141.998 39.7893H144.322C144.27 39.2753 144.23 38.7613 144.217 38.2077C144.204 37.6542 144.19 37.0743 144.19 36.4548V35.8486C144.19 35.2291 144.204 34.6492 144.217 34.1089Z" fill="#000"/>
<path d="M204.466 28.415C204.122 28.415 203.832 28.5337 203.594 28.7709C203.356 29.0081 203.237 29.2849 203.237 29.6144C203.237 29.9439 203.356 30.2338 203.594 30.4711C203.832 30.7083 204.122 30.8137 204.466 30.8137C204.809 30.8137 205.099 30.6951 205.337 30.4711C205.575 30.2338 205.694 29.9439 205.694 29.6144C205.694 29.2849 205.575 28.9949 205.337 28.7709C205.086 28.5205 204.796 28.415 204.466 28.415Z" fill="#000"/>
<path d="M205.522 34.1089C205.536 33.5685 205.575 33.0282 205.628 32.4746H203.304C203.357 33.015 203.383 33.5685 203.409 34.1089C203.423 34.6492 203.436 35.2291 203.436 35.8486V36.4548C203.436 37.0743 203.423 37.6542 203.409 38.2077C203.396 38.7481 203.357 39.2753 203.304 39.7893H205.628C205.575 39.2753 205.536 38.7613 205.522 38.2077C205.509 37.6542 205.496 37.0743 205.496 36.4548V35.8486C205.496 35.2291 205.509 34.6492 205.522 34.1089Z" fill="#000"/>
<path d="M213.539 28.415C213.195 28.415 212.905 28.5337 212.667 28.7709C212.429 29.0081 212.311 29.2849 212.311 29.6144C212.311 29.9439 212.429 30.2338 212.667 30.4711C212.905 30.7083 213.195 30.8137 213.539 30.8137C213.882 30.8137 214.173 30.6951 214.41 30.4711C214.648 30.2338 214.767 29.9439 214.767 29.6144C214.767 29.2849 214.648 28.9949 214.41 28.7709C214.173 28.5205 213.882 28.415 213.539 28.415Z" fill="#000"/>
<path d="M214.596 34.1089C214.609 33.5685 214.649 33.0282 214.701 32.4746H212.377C212.43 33.015 212.456 33.5685 212.483 34.1089C212.496 34.6492 212.509 35.2291 212.509 35.8486V36.4548C212.509 37.0743 212.496 37.6542 212.483 38.2077C212.469 38.7481 212.43 39.2753 212.377 39.7893H214.701C214.649 39.2753 214.609 38.7613 214.596 38.2077C214.582 37.6542 214.569 37.0743 214.569 36.4548V35.8486C214.582 35.2291 214.582 34.6492 214.596 34.1089Z" fill="#000"/>
<path d="M159.906 39.315C159.761 39.0778 159.603 38.801 159.418 38.4847C159.233 38.1684 159.035 37.8257 158.823 37.4831C158.612 37.1404 158.401 36.8109 158.203 36.4946C158.005 36.1915 157.833 35.9279 157.701 35.7038C157.648 35.6247 157.489 35.3875 157.305 35.1371C157.529 34.8867 157.754 34.6231 157.846 34.5177C158.057 34.2936 158.269 34.0432 158.506 33.7928C158.731 33.5424 158.942 33.2919 159.154 33.0547C159.365 32.8175 159.669 32.5539 159.774 32.4221H158.071C157.648 32.8834 157.252 33.2392 156.895 33.6214C156.539 34.0036 156.235 34.32 155.971 34.5835C155.825 34.7285 155.707 34.8471 155.588 34.9526C155.588 34.834 155.588 34.7153 155.588 34.5835V33.5951C155.588 32.6066 155.601 31.684 155.614 30.8669C155.627 30.0366 155.667 29.1931 155.707 28.3496H153.461C153.501 29.2063 153.527 30.0366 153.554 30.8669C153.58 31.684 153.58 32.6066 153.58 33.5951V34.5835C153.58 35.572 153.567 36.4814 153.554 37.3117C153.541 38.142 153.501 38.9592 153.461 39.7895H155.707C155.667 38.9723 155.627 38.142 155.614 37.3117C155.601 36.9427 155.601 36.5473 155.588 36.1387C155.997 36.7977 156.578 37.7203 156.684 37.9048C156.842 38.1948 157.001 38.4583 157.146 38.7219C157.291 38.9855 157.437 39.2096 157.556 39.4073C157.674 39.605 157.754 39.7368 157.806 39.7895H160.144C160.144 39.6972 160.052 39.5522 159.906 39.315Z" fill="#000"/>
<path d="M187.944 39.3279C187.733 39.4993 187.442 39.6443 187.112 39.7497C186.782 39.8683 186.386 39.921 185.923 39.921C185.197 39.921 184.589 39.8156 184.088 39.6047C183.586 39.3938 183.19 39.1171 182.886 38.7612C182.582 38.4054 182.357 37.9968 182.239 37.5355C182.107 37.0874 182.041 36.6261 182.041 36.1648C182.041 35.6113 182.133 35.1105 182.318 34.6492C182.503 34.1879 182.767 33.7793 183.11 33.4367C183.454 33.094 183.876 32.8304 184.365 32.6327C184.854 32.435 185.395 32.3428 186.003 32.3428C186.57 32.3428 187.046 32.4087 187.442 32.5405C187.838 32.6723 188.208 32.8436 188.578 33.0545L188.01 34.6097H187.653C187.574 34.1616 187.416 33.8057 187.178 33.5289C186.94 33.2522 186.597 33.1204 186.135 33.1204C185.54 33.1204 185.091 33.384 184.788 33.9375C184.484 34.4779 184.338 35.2423 184.338 36.2044C184.338 37.1138 184.523 37.7991 184.906 38.2868C185.289 38.7744 185.844 39.0116 186.57 39.0116C186.874 39.0116 187.178 38.9457 187.468 38.8008C187.759 38.6558 187.97 38.4976 188.116 38.3131L188.3 38.4581L187.944 39.3279Z" fill="#000"/>
<path d="M135.21 31.2753C135.183 30.6163 135.157 29.9705 135.117 29.3115C135.289 29.3247 135.487 29.3511 135.685 29.3642C135.883 29.3774 136.121 29.3906 136.372 29.3906C136.623 29.3906 136.847 29.3774 137.045 29.3642C137.243 29.3511 137.442 29.3247 137.613 29.3115C137.574 29.9705 137.547 30.6295 137.521 31.2753C137.494 31.9343 137.494 32.6723 137.494 33.5158V35.585C137.494 36.1649 137.494 36.7184 137.508 37.2588C137.508 37.7992 137.521 38.2605 137.534 38.6558C138.115 38.6558 138.696 38.6427 139.277 38.6031C139.858 38.5768 140.439 38.524 141.021 38.445C140.994 38.5636 140.981 38.6558 140.968 38.7481C140.955 38.8404 140.955 38.9722 140.955 39.1303C140.955 39.2885 140.955 39.4203 140.968 39.5125C140.981 39.6048 140.994 39.6838 141.021 39.7366C140.743 39.7234 140.4 39.7234 140.004 39.7102C139.607 39.7102 139.053 39.697 138.353 39.697C137.732 39.697 137.23 39.697 136.834 39.697C136.464 39.697 136.161 39.697 135.936 39.697C135.711 39.697 135.527 39.697 135.421 39.7102C135.302 39.7102 135.21 39.7234 135.117 39.7366C135.157 39.1039 135.183 38.4713 135.21 37.8123C135.236 37.1534 135.236 36.4153 135.236 35.5718V33.5158C135.236 32.6723 135.236 31.9343 135.21 31.2753Z" fill="#000"/>
<path d="M109.417 39.2093C109.298 39.183 109.206 39.1434 109.127 39.0775C109.061 39.0116 109.008 38.9062 108.968 38.7612C108.929 38.6294 108.915 38.4317 108.915 38.1945C108.915 37.6409 108.929 37.1006 108.942 36.547C108.955 35.9935 108.968 35.4004 108.968 34.7546C108.968 34.3065 108.902 33.9375 108.757 33.6212C108.612 33.3049 108.427 33.0545 108.189 32.8568C107.951 32.6591 107.661 32.5141 107.331 32.4218C107 32.3296 106.631 32.29 106.248 32.29C105.772 32.29 105.27 32.3823 104.769 32.5668C104.267 32.7513 103.804 33.0017 103.369 33.3444L103.567 34.2538H103.672C103.738 34.1484 103.857 34.0429 103.989 33.9507C104.135 33.8584 104.28 33.7662 104.452 33.6871C104.623 33.608 104.795 33.5421 104.993 33.5026C105.178 33.463 105.363 33.4367 105.534 33.4367C105.984 33.4367 106.34 33.5685 106.591 33.832C106.842 34.0825 106.974 34.3988 106.974 34.7546C106.974 34.8864 106.961 35.005 106.921 35.0973C106.882 35.1895 106.802 35.2686 106.697 35.3477C106.578 35.4268 106.393 35.4927 106.155 35.5718C105.917 35.6508 105.574 35.7299 105.138 35.8353C104.782 35.9144 104.465 36.0199 104.187 36.1253C103.91 36.2439 103.672 36.3889 103.461 36.5602C103.263 36.7316 103.104 36.9424 102.999 37.1797C102.893 37.4169 102.84 37.7068 102.84 38.0363C102.84 38.2867 102.88 38.524 102.959 38.7612C103.038 38.9984 103.17 39.2093 103.355 39.3938C103.54 39.5783 103.765 39.7233 104.042 39.8288C104.319 39.9342 104.663 39.9869 105.046 39.9869C105.521 39.9869 105.917 39.8947 106.208 39.697C106.512 39.4993 106.776 39.2489 107 38.9194C107.119 39.262 107.291 39.5256 107.515 39.7101C107.74 39.8946 108.044 39.9869 108.4 39.9869C108.638 39.9869 108.849 39.9605 109.061 39.8947C109.272 39.8288 109.523 39.7365 109.827 39.6179V39.2489C109.681 39.2489 109.536 39.2357 109.417 39.2093ZM106.974 36.4811C106.974 36.7052 106.974 37.0347 106.974 37.4696C106.974 37.9704 106.868 38.3395 106.67 38.6031C106.472 38.8535 106.208 38.9853 105.878 38.9853C105.614 38.9853 105.402 38.893 105.244 38.6953C105.085 38.4976 105.006 38.2077 105.006 37.8386C105.006 37.4564 105.072 37.1665 105.204 36.9556C105.336 36.7579 105.495 36.5866 105.706 36.468C105.904 36.3493 106.116 36.2571 106.353 36.178C106.591 36.0989 106.802 36.0067 107.014 35.8881C106.987 36.0462 106.987 36.2439 106.974 36.4811Z" fill="#000"/>
<path d="M152.273 37.6151C152.273 37.2197 152.286 36.8243 152.299 36.4289C152.326 36.0335 152.326 35.5854 152.326 35.0714C152.326 34.0961 152.128 33.3844 151.745 32.9363C151.362 32.5014 150.794 32.2773 150.015 32.2773C149.526 32.2773 149.077 32.396 148.694 32.62C148.311 32.8572 147.968 33.1736 147.677 33.6085H147.651L147.717 32.475H145.538C145.59 33.0154 145.617 33.5689 145.63 34.1093C145.643 34.6497 145.656 35.2296 145.656 35.849V36.4553C145.656 37.0747 145.643 37.6546 145.63 38.2082C145.617 38.7485 145.577 39.2757 145.538 39.7897H147.809C147.756 39.2757 147.73 38.7617 147.703 38.2082C147.69 37.6546 147.677 37.0747 147.677 36.4553V35.849C147.677 35.1505 147.783 34.5969 148.007 34.2147C148.219 33.8194 148.562 33.6217 149.024 33.6217C149.42 33.6217 149.737 33.7666 149.962 34.0698C150.186 34.3729 150.292 34.8342 150.292 35.48C150.292 36.4026 150.279 37.2197 150.266 37.9314C150.252 38.6431 150.2 39.2625 150.134 39.7897H152.352C152.339 39.4339 152.313 39.0648 152.299 38.6826C152.286 38.3004 152.273 37.9446 152.273 37.6151Z" fill="#000"/>
</g>
<defs>
<clipPath id="clip0">
<rect width="228" height="44" fill="#000"/>
</clipPath>
</defs>
</svg>
